# xmcd
#
# Track frame offsets: 
#        150
#        17845
#        36392
#        48875
#        61425
#        77900
#        93265
#        105997
#        122412
#        140893
#        154769
#        176058
#
# Disc length: 2544 seconds
#
# Revision: 0
# Processed by: cddbd v1.5.1PL0 Copyright (c) Steve Scherf et al.
# Submitted via: ExactAudioCopy v0.90b4
#
DISCID=9b09ee0c
DTITLE=Steve Phillips - Everyone a Gem
DYEAR=2000
DGENRE=Blues
TTITLE0=Been A Long Time Gone
TTITLE1=Last Chance Blues
TTITLE2=One Sided Love Affair
TTITLE3=Crossroad Blues
TTITLE4=Arrangement For Me
TTITLE5=Tomorrow Night
TTITLE6=Hot Time Tonight
TTITLE7=Don't Put That Thing On Me
TTITLE8=Rope Stretchin' Blues
TTITLE9=Can't Sit Down
TTITLE10=Blue Mountain
TTITLE11=Tweedlee Dee
EXTD=
EXTT0=
EXTT1=
EXTT2=
EXTT3=
EXTT4=
EXTT5=
EXTT6=
EXTT7=
EXTT8=
EXTT9=
EXTT10=
EXTT11=
PLAYORDER=
